# xmcd
#
# Track frame offsets: 
#        150
#        14938
#        30498
#        40572
#        64511
#        86542
#        97589
#        111339
#        124205
#        138488
#        149517
#        179897
#        194608
#        227236
#        240414
#        254409
#        271145
#        295942
#
# Disc length: 4137 seconds
#
# Revision: 1
# Processed by: cddbd v1.5.2PL0 Copyright (c) Steve Scherf et al.
# Submitted via: ExactAudioCopyFreeDBPlugin 1.0
#
DISCID=09102712
DTITLE=Various Artist - Ain't It Funky Now!:  Flat Out Funk from the 
DTITLE=Jazz Brotherhood
DYEAR=2002
DGENRE=Soul
TTITLE0=Rusty Bryant - Fire-Eater
TTITLE1=Melvin Sparks - Who's Gonna Take the Weight
TTITLE2=Idris Muhammad - Super Bad
TTITLE3=Funk Inc - Sister Janie
TTITLE4=Idris Muhammad - Don't Knock My Love
TTITLE5=Gene Ammons - Jungle Strut
TTITLE6=Boogaloo Joe Jones - Right On
TTITLE7=Charles Earland - Black Talk, Part 1
TTITLE8=Melvin Sparks - Thank You, Part 1
TTITLE9=Idris Muhammad - Express Yourself
TTITLE10=Leon Spencer - Message from The Meters
TTITLE11=Gene Ammons - Son of a Preacher Man
TTITLE12=Charles Kynard - Reelin' with the Feeling
TTITLE13=Charles Earland - Sing a Simple Song
TTITLE14=Freddie Mccoy - Listen Here, Part 1
TTITLE15=Charles Earland - Girl You Need a Change of Mind
TTITLE16=Harold Mabern - I Want You Back
TTITLE17=Houston Person - Son of Man
EXTD=
EXTT0=
EXTT1=
EXTT2=
EXTT3=
EXTT4=
EXTT5=
EXTT6=
EXTT7=
EXTT8=
EXTT9=
EXTT10=
EXTT11=
EXTT12=
EXTT13=
EXTT14=
EXTT15=
EXTT16=
EXTT17=
PLAYORDER=
